<svg id="Layer_1" data-name="Layer 1" xmlns="http://www.w3.org/2000/svg" xmlns:xlink="http://www.w3.org/1999/xlink" viewBox="0 0 1541.9 365.07"><defs><style>.cls-1{fill:none;}.cls-2{clip-path:url(#clip-path);}.cls-3{fill:#81cff4;}.cls-4{fill:#35a8e0;}.cls-5{fill:#1d70b7;}.cls-6{fill:#f8b133;}.cls-7{fill:#f29100;}.cls-8{fill:#ffdd12;}.cls-9{fill:#9bf6dd;}.cls-10{fill:#59f1c8;}.cls-11{fill:#4ddad8;}.cls-12{opacity:0.4;}.cls-13{fill:url(#linear-gradient);}.cls-14{fill:url(#linear-gradient-2);}</style><clipPath id="clip-path"><polygon class="cls-1" points="1707.79 365.07 85.04 365.07 89.14 0 1711.88 0 1707.79 365.07"/></clipPath><linearGradient id="linear-gradient" x1="193.36" y1="421.63" x2="463.27" y2="242.39" gradientUnits="userSpaceOnUse"><stop offset="0" stop-color="#fff" stop-opacity="0"/><stop offset="1" stop-color="#59f1c8"/></linearGradient><linearGradient id="linear-gradient-2" x1="164.39" y1="349.2" x2="438.52" y2="180.5" xlink:href="#linear-gradient"/></defs><title>blocks-crop-header-RGB</title><g class="cls-2"><polygon class="cls-3" points="1470.76 122.91 1541.82 81.89 1541.82 -0.16 1470.76 40.87 1470.76 122.91"/><polygon class="cls-4" points="1470.76 40.87 1541.82 -0.16 1470.76 -41.19 1399.7 -0.16 1470.76 40.87"/><polygon class="cls-3" points="1399.7 163.94 1470.76 122.91 1470.76 40.87 1399.7 81.89 1399.7 163.94"/><polygon class="cls-5" points="1399.7 163.94 1328.64 122.91 1328.64 40.87 1399.7 81.89 1399.7 163.94"/><polygon class="cls-4" points="1399.7 81.89 1470.76 40.87 1399.7 -0.16 1328.64 40.87 1399.7 81.89"/><polygon class="cls-3" points="1257.59 245.99 1328.64 204.96 1328.64 122.91 1257.59 163.94 1257.59 245.99"/><polygon class="cls-4" points="1257.59 163.94 1328.64 122.91 1257.59 81.89 1186.53 122.91 1257.59 163.94"/><polygon class="cls-3" points="1399.7 245.99 1470.76 204.96 1470.76 122.91 1399.7 163.94 1399.7 245.99"/><polygon class="cls-5" points="1399.7 245.99 1328.64 204.96 1328.64 122.91 1399.7 163.94 1399.7 245.99"/><polygon class="cls-4" points="1399.7 163.94 1470.76 122.91 1399.7 81.89 1328.64 122.91 1399.7 163.94"/><polygon class="cls-3" points="1044.41 287.01 1115.47 245.99 1115.47 163.94 1044.41 204.96 1044.41 287.01"/><polygon class="cls-4" points="1044.41 204.96 1115.47 163.94 1044.41 122.91 973.36 163.94 1044.41 204.96"/><polygon class="cls-3" points="973.36 328.04 1044.41 287.01 1044.41 204.96 973.36 245.99 973.36 328.04"/><polygon class="cls-5" points="973.36 328.04 902.3 287.01 902.3 204.96 973.36 245.99 973.36 328.04"/><polygon class="cls-4" points="973.36 245.99 1044.41 204.96 973.36 163.94 902.3 204.96 973.36 245.99"/><polygon class="cls-3" points="831.24 328.04 902.3 287.01 902.3 204.96 831.24 245.99 831.24 328.04"/><polygon class="cls-5" points="831.24 328.04 760.19 287.01 760.19 204.96 831.24 245.99 831.24 328.04"/><polygon class="cls-4" points="831.24 245.99 902.3 204.96 831.24 163.94 760.19 204.96 831.24 245.99"/><polygon class="cls-3" points="831.24 410.09 902.3 369.06 902.3 287.01 831.24 328.04 831.24 410.09"/><polygon class="cls-4" points="831.24 328.04 902.3 287.01 831.24 245.99 760.19 287.01 831.24 328.04"/><polygon class="cls-3" points="760.19 451.11 831.24 410.09 831.24 328.04 760.19 369.06 760.19 451.11"/><polygon class="cls-4" points="760.19 369.06 831.24 328.04 760.19 287.01 689.13 328.04 760.19 369.06"/><polygon class="cls-4" points="689.13 410.09 760.19 369.06 689.13 328.04 618.07 369.06 689.13 410.09"/><polygon class="cls-6" points="902.3 40.87 973.36 -0.16 973.36 -82.21 902.3 -41.19 902.3 40.87"/><polygon class="cls-7" points="902.3 40.87 831.24 -0.16 831.24 -82.21 902.3 -41.19 902.3 40.87"/><polygon class="cls-7" points="902.3 122.91 831.24 81.89 831.24 -0.16 902.3 40.87 902.3 122.91"/><polygon class="cls-8" points="902.3 40.87 973.36 -0.16 902.3 -41.19 831.24 -0.16 902.3 40.87"/><polygon class="cls-6" points="973.36 163.94 1044.41 122.91 1044.41 40.87 973.36 81.89 973.36 163.94"/><polygon class="cls-7" points="973.36 163.94 902.3 122.91 902.3 40.87 973.36 81.89 973.36 163.94"/><polygon class="cls-8" points="973.36 81.89 1044.41 40.87 973.36 -0.16 902.3 40.87 973.36 81.89"/><polygon class="cls-6" points="1115.47 163.94 1186.53 122.91 1186.53 40.87 1115.47 81.89 1115.47 163.94"/><polygon class="cls-7" points="1115.47 163.94 1044.41 122.91 1044.41 40.87 1115.47 81.89 1115.47 163.94"/><polygon class="cls-8" points="1115.47 81.89 1186.53 40.87 1115.47 -0.16 1044.41 40.87 1115.47 81.89"/><polygon class="cls-7" points="1115.47 245.99 1044.41 204.96 1044.41 122.91 1115.47 163.94 1115.47 245.99"/><polygon class="cls-8" points="1115.47 163.94 1186.53 122.91 1115.47 81.89 1044.41 122.91 1115.47 163.94"/><polygon class="cls-7" points="1186.53 287.01 1115.47 245.99 1115.47 163.94 1186.53 204.96 1186.53 287.01"/><polygon class="cls-8" points="1186.53 204.96 1257.59 163.94 1186.53 122.91 1115.47 163.94 1186.53 204.96"/><polygon class="cls-6" points="1257.59 328.04 1328.64 287.01 1328.64 204.96 1257.59 245.99 1257.59 328.04"/><polygon class="cls-8" points="1257.59 245.99 1328.64 204.96 1257.59 163.94 1186.53 204.96 1257.59 245.99"/><polygon class="cls-7" points="1186.53 369.06 1115.47 328.04 1115.47 245.99 1186.53 287.01 1186.53 369.06"/><polygon class="cls-8" points="1186.53 287.01 1257.59 245.99 1186.53 204.96 1115.47 245.99 1186.53 287.01"/><polygon class="cls-7" points="1257.59 410.09 1186.53 369.06 1186.53 287.01 1257.59 328.04 1257.59 410.09"/><polygon class="cls-8" points="1257.59 328.04 1328.64 287.01 1257.59 245.99 1186.53 287.01 1257.59 328.04"/><polygon class="cls-6" points="1328.64 451.11 1399.7 410.09 1399.7 328.04 1328.64 369.06 1328.64 451.11"/><polygon class="cls-7" points="1328.64 451.11 1257.59 410.09 1257.59 328.04 1328.64 369.06 1328.64 451.11"/><polygon class="cls-8" points="1328.64 369.06 1399.7 328.04 1328.64 287.01 1257.59 328.04 1328.64 369.06"/><polygon class="cls-9" points="760.49 40.87 831.55 -0.16 831.55 -82.21 760.49 -41.19 760.49 40.87"/><polygon class="cls-9" points="689.43 81.89 760.49 40.87 760.49 -41.19 689.43 -0.16 689.43 81.89"/><polygon class="cls-10" points="618.37 40.87 689.43 -0.16 618.37 -41.19 547.32 -0.16 618.37 40.87"/><polygon class="cls-11" points="618.37 122.91 547.32 81.89 547.32 -0.16 618.37 40.87 618.37 122.91"/><polygon class="cls-9" points="689.43 163.94 760.49 122.91 760.49 40.87 689.43 81.89 689.43 163.94"/><polygon class="cls-10" points="689.43 81.89 760.49 40.87 689.43 -0.16 618.37 40.87 689.43 81.89"/><polygon class="cls-9" points="618.37 204.96 689.43 163.94 689.43 81.89 618.37 122.91 618.37 204.96"/><polygon class="cls-10" points="618.37 122.91 689.43 81.89 618.37 40.87 547.32 81.89 618.37 122.91"/><polygon class="cls-9" points="547.32 245.99 618.37 204.96 618.37 122.91 547.32 163.94 547.32 245.99"/><polygon class="cls-10" points="547.32 163.94 618.37 122.91 547.32 81.89 476.26 122.91 547.32 163.94"/><polygon class="cls-9" points="476.26 287.01 547.32 245.99 547.32 163.94 476.26 204.96 476.26 287.01"/><polygon class="cls-11" points="476.26 287.01 405.2 245.99 405.2 163.94 476.26 204.96 476.26 287.01"/><polygon class="cls-10" points="476.26 204.96 547.32 163.94 476.26 122.91 405.2 163.94 476.26 204.96"/><g class="cls-12"><polygon class="cls-13" points="192.33 451.11 476.26 287.01 476.26 204.96 192.33 369.06 192.33 451.11"/><polygon class="cls-14" points="192.33 369.06 476.26 204.96 405.2 163.94 121.28 328.04 192.33 369.06"/></g></g></svg>